<svg width="139" height="66" viewBox="0 0 139 66" fill="none" xmlns="http://www.w3.org/2000/svg">
    <g filter="url(#filter0_d_13_3)">
        <path d="M18.6541 14.8C19.4674 14.9733 20.1207 15.38 20.6141 16.02C21.1074 16.6467 21.3541 17.3667 21.3541 18.18C21.3541 19.3533 20.9407 20.2867 20.1141 20.98C19.3007 21.66 18.1607 22 16.6941 22H10.1541V7.96H16.4741C17.9007 7.96 19.0141 8.28667 19.8141 8.94C20.6274 9.59333 21.0341 10.48 21.0341 11.6C21.0341 12.4267 20.8141 13.1133 20.3741 13.66C19.9474 14.2067 19.3741 14.5867 18.6541 14.8ZM13.5741 13.64H15.8141C16.3741 13.64 16.8007 13.52 17.0941 13.28C17.4007 13.0267 17.5541 12.66 17.5541 12.18C17.5541 11.7 17.4007 11.3333 17.0941 11.08C16.8007 10.8267 16.3741 10.7 15.8141 10.7H13.5741V13.64ZM16.0941 19.24C16.6674 19.24 17.1074 19.1133 17.4141 18.86C17.7341 18.5933 17.8941 18.2133 17.8941 17.72C17.8941 17.2267 17.7274 16.84 17.3941 16.56C17.0741 16.28 16.6274 16.14 16.0541 16.14H13.5741V19.24H16.0941ZM28.1377 10.86C29.6043 10.86 30.7243 11.18 31.4977 11.82C32.2843 12.4467 32.6777 13.4133 32.6777 14.72V22H30.5977L30.0177 20.52H29.9377C29.631 20.9067 29.311 21.2267 28.9777 21.48C28.6577 21.7333 28.2843 21.9133 27.8577 22.02C27.4443 22.14 26.931 22.2 26.3177 22.2C25.6777 22.2 25.0977 22.08 24.5777 21.84C24.071 21.5867 23.671 21.2067 23.3777 20.7C23.0843 20.18 22.9377 19.5267 22.9377 18.74C22.9377 17.58 23.3443 16.7267 24.1577 16.18C24.971 15.62 26.191 15.3133 27.8177 15.26L29.7177 15.2V14.72C29.7177 14.1467 29.5643 13.7267 29.2577 13.46C28.9643 13.1933 28.551 13.06 28.0177 13.06C27.4843 13.06 26.9643 13.14 26.4577 13.3C25.951 13.4467 25.4443 13.6333 24.9377 13.86L23.9577 11.84C24.5443 11.5333 25.191 11.2933 25.8977 11.12C26.6177 10.9467 27.3643 10.86 28.1377 10.86ZM28.5577 16.98C27.5977 17.0067 26.931 17.18 26.5577 17.5C26.1843 17.82 25.9977 18.24 25.9977 18.76C25.9977 19.2133 26.131 19.54 26.3977 19.74C26.6643 19.9267 27.011 20.02 27.4377 20.02C28.0777 20.02 28.6177 19.8333 29.0577 19.46C29.4977 19.0733 29.7177 18.5333 29.7177 17.84V16.94L28.5577 16.98ZM28.1177 26.2C27.6643 26.2 27.2777 26.0933 26.9577 25.88C26.651 25.6667 26.4977 25.2867 26.4977 24.74C26.4977 24.18 26.651 23.7933 26.9577 23.58C27.2777 23.38 27.6643 23.28 28.1177 23.28C28.5577 23.28 28.9377 23.38 29.2577 23.58C29.5777 23.7933 29.7377 24.18 29.7377 24.74C29.7377 25.2867 29.5777 25.6667 29.2577 25.88C28.9377 26.0933 28.5577 26.2 28.1177 26.2ZM42.2275 10.72C43.5342 10.72 44.5742 11.1467 45.3475 12C46.1342 12.84 46.5275 14 46.5275 15.48V22H43.1275V15.94C43.1275 15.1933 42.9342 14.6133 42.5475 14.2C42.1608 13.7867 41.6408 13.58 40.9875 13.58C40.3342 13.58 39.8142 13.7867 39.4275 14.2C39.0408 14.6133 38.8475 15.1933 38.8475 15.94V22H35.4275V10.84H38.8475V12.32C39.1942 11.8267 39.6608 11.44 40.2475 11.16C40.8342 10.8667 41.4942 10.72 42.2275 10.72ZM63.3823 16.52C63.3823 17.7333 63.1623 18.7667 62.7223 19.62C62.2957 20.46 61.6823 21.1 60.8823 21.54C60.0957 21.98 59.1557 22.2 58.0623 22.2C57.049 22.2 56.1423 21.98 55.3423 21.54C54.5557 21.1 53.9357 20.46 53.4823 19.62C53.029 18.7667 52.8023 17.7333 52.8023 16.52C52.8023 14.7067 53.2757 13.3133 54.2223 12.34C55.169 11.3667 56.469 10.88 58.1223 10.88C58.8557 10.88 59.549 10.9933 60.2023 11.22C60.8557 11.4467 61.409 11.78 61.8623 12.22C62.2223 12.1133 62.509 11.9333 62.7223 11.68C62.9357 11.4133 63.089 11.0933 63.1823 10.72C63.2757 10.3333 63.3223 9.90667 63.3223 9.44H66.2623L66.4023 9.66C66.269 10.3 66.0823 10.9 65.8423 11.46C65.6157 12.0067 65.269 12.48 64.8023 12.88C64.3357 13.28 63.6957 13.5867 62.8823 13.8C63.0423 14.1867 63.1623 14.6067 63.2423 15.06C63.3357 15.5133 63.3823 16 63.3823 16.52ZM55.8423 16.52C55.8423 17.24 55.9157 17.8467 56.0623 18.34C56.2223 18.82 56.469 19.1867 56.8023 19.44C57.1357 19.68 57.569 19.8 58.1023 19.8C58.6357 19.8 59.0623 19.68 59.3823 19.44C59.7157 19.1867 59.9557 18.82 60.1023 18.34C60.2623 17.8467 60.3423 17.24 60.3423 16.52C60.3423 15.8 60.2623 15.2 60.1023 14.72C59.9557 14.24 59.7157 13.88 59.3823 13.64C59.049 13.4 58.6157 13.28 58.0823 13.28C57.2957 13.28 56.7223 13.5533 56.3623 14.1C56.0157 14.6333 55.8423 15.44 55.8423 16.52ZM68.4366 9.68C67.8366 9.68 67.3432 9.50667 66.9566 9.16C66.5832 8.8 66.3966 8.36 66.3966 7.84C66.3966 7.30667 66.5832 6.86667 66.9566 6.52C67.3432 6.16 67.8366 5.98 68.4366 5.98C69.0232 5.98 69.5032 6.16 69.8766 6.52C70.2632 6.86667 70.4566 7.30667 70.4566 7.84C70.4566 8.36 70.2632 8.8 69.8766 9.16C69.5032 9.50667 69.0232 9.68 68.4366 9.68ZM70.1366 10.84V22H66.7166V10.84H70.1366ZM89.1933 10.18H87.9533V22H84.5333V20.4C84.2133 20.9333 83.7533 21.36 83.1533 21.68C82.5666 22 81.8799 22.16 81.0933 22.16C80.1733 22.16 79.3399 21.9267 78.5933 21.46C77.8466 20.98 77.2533 20.3067 76.8133 19.44C76.3866 18.56 76.1733 17.5467 76.1733 16.4C76.1733 15.2533 76.3866 14.2467 76.8133 13.38C77.2533 12.5133 77.8466 11.8467 78.5933 11.38C79.3399 10.9133 80.1733 10.68 81.0933 10.68C81.8266 10.68 82.4933 10.8333 83.0933 11.14C83.7066 11.4467 84.1866 11.86 84.5333 12.38V10.18H83.1333V8.54H84.5333V7.2H87.9533V8.54H89.1933V10.18ZM82.0933 19.18C82.7733 19.18 83.3466 18.9333 83.8133 18.44C84.2933 17.9467 84.5333 17.2733 84.5333 16.42C84.5333 15.5667 84.2933 14.8933 83.8133 14.4C83.3466 13.9067 82.7733 13.66 82.0933 13.66C81.4133 13.66 80.8333 13.9067 80.3533 14.4C79.8866 14.88 79.6533 15.5467 79.6533 16.4C79.6533 17.2533 79.8866 17.9333 80.3533 18.44C80.8333 18.9333 81.4133 19.18 82.0933 19.18ZM90.0209 16.4C90.0209 15.2533 90.2343 14.2467 90.6609 13.38C91.1009 12.5133 91.6943 11.8467 92.4409 11.38C93.1876 10.9133 94.0209 10.68 94.9409 10.68C95.7276 10.68 96.4143 10.84 97.0009 11.16C97.6009 11.48 98.0609 11.9 98.3809 12.42V10.84H101.801V22H98.3809V20.42C98.0476 20.94 97.5809 21.36 96.9809 21.68C96.3943 22 95.7076 22.16 94.9209 22.16C94.0143 22.16 93.1876 21.9267 92.4409 21.46C91.6943 20.98 91.1009 20.3067 90.6609 19.44C90.2343 18.56 90.0209 17.5467 90.0209 16.4ZM98.3809 16.42C98.3809 15.5667 98.1409 14.8933 97.6609 14.4C97.1943 13.9067 96.6209 13.66 95.9409 13.66C95.2609 13.66 94.6809 13.9067 94.2009 14.4C93.7343 14.88 93.5009 15.5467 93.5009 16.4C93.5009 17.2533 93.7343 17.9333 94.2009 18.44C94.6809 18.9333 95.2609 19.18 95.9409 19.18C96.6209 19.18 97.1943 18.9333 97.6609 18.44C98.1409 17.9467 98.3809 17.2733 98.3809 16.42ZM99.7409 6.58C99.7409 7.67333 99.4276 8.52 98.8009 9.12C98.1743 9.72 97.3476 10.02 96.3209 10.02C95.2943 10.02 94.4676 9.72 93.8409 9.12C93.2276 8.50667 92.9209 7.65333 92.9209 6.56V6.18H94.6209C94.6209 6.62 94.7476 6.95333 95.0009 7.18C95.2543 7.40667 95.6943 7.52 96.3209 7.52C96.9476 7.52 97.3876 7.40667 97.6409 7.18C97.8943 6.95333 98.0209 6.62 98.0209 6.18H99.7409V6.58ZM111.075 10.72C112.382 10.72 113.422 11.1467 114.195 12C114.982 12.84 115.375 14 115.375 15.48V22H111.975V15.94C111.975 15.1933 111.782 14.6133 111.395 14.2C111.008 13.7867 110.488 13.58 109.835 13.58C109.182 13.58 108.662 13.7867 108.275 14.2C107.888 14.6133 107.695 15.1933 107.695 15.94V22H104.275V10.84H107.695V12.32C108.042 11.8267 108.508 11.44 109.095 11.16C109.682 10.8667 110.342 10.72 111.075 10.72ZM121.992 10.68C122.778 10.68 123.465 10.84 124.052 11.16C124.652 11.48 125.112 11.9 125.432 12.42V10.84H128.852V21.98C128.852 23.0067 128.645 23.9333 128.232 24.76C127.832 25.6 127.212 26.2667 126.372 26.76C125.545 27.2533 124.512 27.5 123.272 27.5C121.618 27.5 120.278 27.1067 119.252 26.32C118.225 25.5467 117.638 24.4933 117.492 23.16H120.872C120.978 23.5867 121.232 23.92 121.632 24.16C122.032 24.4133 122.525 24.54 123.112 24.54C123.818 24.54 124.378 24.3333 124.792 23.92C125.218 23.52 125.432 22.8733 125.432 21.98V20.4C125.098 20.92 124.638 21.3467 124.052 21.68C123.465 22 122.778 22.16 121.992 22.16C121.072 22.16 120.238 21.9267 119.492 21.46C118.745 20.98 118.152 20.3067 117.712 19.44C117.285 18.56 117.072 17.5467 117.072 16.4C117.072 15.2533 117.285 14.2467 117.712 13.38C118.152 12.5133 118.745 11.8467 119.492 11.38C120.238 10.9133 121.072 10.68 121.992 10.68ZM125.432 16.42C125.432 15.5667 125.192 14.8933 124.712 14.4C124.245 13.9067 123.672 13.66 122.992 13.66C122.312 13.66 121.732 13.9067 121.252 14.4C120.785 14.88 120.552 15.5467 120.552 16.4C120.552 17.2533 120.785 17.9333 121.252 18.44C121.732 18.9333 122.312 19.18 122.992 19.18C123.672 19.18 124.245 18.9333 124.712 18.44C125.192 17.9467 125.432 17.2733 125.432 16.42ZM29.4834 40.72C30.79 40.72 31.83 41.1467 32.6034 42C33.39 42.84 33.7834 44 33.7834 45.48V52H30.3834V45.94C30.3834 45.1933 30.19 44.6133 29.8034 44.2C29.4167 43.7867 28.8967 43.58 28.2434 43.58C27.59 43.58 27.07 43.7867 26.6834 44.2C26.2967 44.6133 26.1034 45.1933 26.1034 45.94V52H22.6834V40.84H26.1034V42.32C26.45 41.8267 26.9167 41.44 27.5034 41.16C28.09 40.8667 28.75 40.72 29.4834 40.72ZM43.0199 40.72C44.2999 40.72 45.3266 41.1467 46.0999 42C46.8733 42.84 47.2599 44 47.2599 45.48V52H43.8599V45.94C43.8599 45.1933 43.6666 44.6133 43.2799 44.2C42.8933 43.7867 42.3733 43.58 41.7199 43.58C41.0666 43.58 40.5466 43.7867 40.1599 44.2C39.7733 44.6133 39.5799 45.1933 39.5799 45.94V52H36.1599V37.2H39.5799V42.34C39.9266 41.8467 40.3999 41.4533 40.9999 41.16C41.5999 40.8667 42.2733 40.72 43.0199 40.72ZM54.4365 40.86C55.9032 40.86 57.0232 41.18 57.7965 41.82C58.5832 42.4467 58.9765 43.4133 58.9765 44.72V52H56.8965L56.3165 50.52H56.2365C55.9298 50.9067 55.6098 51.2267 55.2765 51.48C54.9565 51.7333 54.5832 51.9133 54.1565 52.02C53.7432 52.14 53.2298 52.2 52.6165 52.2C51.9765 52.2 51.3965 52.08 50.8765 51.84C50.3698 51.5867 49.9698 51.2067 49.6765 50.7C49.3832 50.18 49.2365 49.5267 49.2365 48.74C49.2365 47.58 49.6432 46.7267 50.4565 46.18C51.2698 45.62 52.4898 45.3133 54.1165 45.26L56.0165 45.2V44.72C56.0165 44.1467 55.8632 43.7267 55.5565 43.46C55.2632 43.1933 54.8498 43.06 54.3165 43.06C53.7832 43.06 53.2632 43.14 52.7565 43.3C52.2498 43.4467 51.7432 43.6333 51.2365 43.86L50.2565 41.84C50.8432 41.5333 51.4898 41.2933 52.1965 41.12C52.9165 40.9467 53.6632 40.86 54.4365 40.86ZM54.8565 46.98C53.8965 47.0067 53.2298 47.18 52.8565 47.5C52.4832 47.82 52.2965 48.24 52.2965 48.76C52.2965 49.2133 52.4298 49.54 52.6965 49.74C52.9632 49.9267 53.3098 50.02 53.7365 50.02C54.3765 50.02 54.9165 49.8333 55.3565 49.46C55.7965 49.0733 56.0165 48.5333 56.0165 47.84V46.94L54.8565 46.98ZM56.1965 36.68C56.3832 36.9733 56.6232 37.3067 56.9165 37.68C57.2232 38.04 57.5365 38.3933 57.8565 38.74C58.1765 39.0867 58.4565 39.38 58.6965 39.62V39.88H56.7165C56.3698 39.6667 55.9898 39.42 55.5765 39.14C55.1632 38.8467 54.7832 38.52 54.4365 38.16C54.0898 38.52 53.7165 38.84 53.3165 39.12C52.9165 39.4 52.5432 39.6533 52.1965 39.88H50.2165V39.62C50.4698 39.3667 50.7498 39.0733 51.0565 38.74C51.3765 38.3933 51.6832 38.04 51.9765 37.68C52.2832 37.3067 52.5298 36.9733 52.7165 36.68H56.1965ZM54.1965 56.2C53.7432 56.2 53.3565 56.0933 53.0365 55.88C52.7298 55.6667 52.5765 55.2867 52.5765 54.74C52.5765 54.18 52.7298 53.7933 53.0365 53.58C53.3565 53.38 53.7432 53.28 54.1965 53.28C54.6365 53.28 55.0165 53.38 55.3365 53.58C55.6565 53.7933 55.8165 54.18 55.8165 54.74C55.8165 55.2867 55.6565 55.6667 55.3365 55.88C55.0165 56.0933 54.6365 56.2 54.1965 56.2ZM65.1268 42.42C65.4601 41.9 65.9201 41.48 66.5068 41.16C67.0935 40.84 67.7801 40.68 68.5668 40.68C69.4868 40.68 70.3201 40.9133 71.0668 41.38C71.8135 41.8467 72.4001 42.5133 72.8268 43.38C73.2668 44.2467 73.4868 45.2533 73.4868 46.4C73.4868 47.5467 73.2668 48.56 72.8268 49.44C72.4001 50.3067 71.8135 50.98 71.0668 51.46C70.3201 51.9267 69.4868 52.16 68.5668 52.16C67.7935 52.16 67.1068 52 66.5068 51.68C65.9201 51.36 65.4601 50.9467 65.1268 50.44V57.32H61.7068V40.84H65.1268V42.42ZM70.0068 46.4C70.0068 45.5467 69.7668 44.88 69.2868 44.4C68.8201 43.9067 68.2401 43.66 67.5468 43.66C66.8668 43.66 66.2868 43.9067 65.8068 44.4C65.3401 44.8933 65.1068 45.5667 65.1068 46.42C65.1068 47.2733 65.3401 47.9467 65.8068 48.44C66.2868 48.9333 66.8668 49.18 67.5468 49.18C68.2268 49.18 68.8068 48.9333 69.2868 48.44C69.7668 47.9333 70.0068 47.2533 70.0068 46.4ZM86.3193 40.72C87.626 40.72 88.666 41.1467 89.4393 42C90.226 42.84 90.6193 44 90.6193 45.48V52H87.2193V45.94C87.2193 45.1933 87.026 44.6133 86.6393 44.2C86.2526 43.7867 85.7326 43.58 85.0793 43.58C84.426 43.58 83.906 43.7867 83.5193 44.2C83.1326 44.6133 82.9393 45.1933 82.9393 45.94V52H79.5193V40.84H82.9393V42.32C83.286 41.8267 83.7526 41.44 84.3393 41.16C84.926 40.8667 85.586 40.72 86.3193 40.72ZM99.8559 40.72C101.136 40.72 102.163 41.1467 102.936 42C103.709 42.84 104.096 44 104.096 45.48V52H100.696V45.94C100.696 45.1933 100.503 44.6133 100.116 44.2C99.7292 43.7867 99.2092 43.58 98.5559 43.58C97.9025 43.58 97.3825 43.7867 96.9959 44.2C96.6092 44.6133 96.4159 45.1933 96.4159 45.94V52H92.9959V37.2H96.4159V42.34C96.7625 41.8467 97.2359 41.4533 97.8359 41.16C98.4359 40.8667 99.1092 40.72 99.8559 40.72ZM116.992 46.24C116.992 46.56 116.972 46.8933 116.932 47.24H109.192C109.246 47.9333 109.466 48.4667 109.852 48.84C110.252 49.2 110.739 49.38 111.312 49.38C112.166 49.38 112.759 49.02 113.092 48.3H116.732C116.546 49.0333 116.206 49.6933 115.712 50.28C115.232 50.8667 114.626 51.3267 113.892 51.66C113.159 51.9933 112.339 52.16 111.432 52.16C110.339 52.16 109.366 51.9267 108.512 51.46C107.659 50.9933 106.992 50.3267 106.512 49.46C106.032 48.5933 105.792 47.58 105.792 46.42C105.792 45.26 106.026 44.2467 106.492 43.38C106.972 42.5133 107.639 41.8467 108.492 41.38C109.346 40.9133 110.326 40.68 111.432 40.68C112.512 40.68 113.472 40.9067 114.312 41.36C115.152 41.8133 115.806 42.46 116.272 43.3C116.752 44.14 116.992 45.12 116.992 46.24ZM113.492 45.34C113.492 44.7533 113.292 44.2867 112.892 43.94C112.492 43.5933 111.992 43.42 111.392 43.42C110.819 43.42 110.332 43.5867 109.932 43.92C109.546 44.2533 109.306 44.7267 109.212 45.34H113.492ZM113.732 37.98L108.912 40V37.64L113.732 35.32V37.98Z"
              fill="white"/>
    </g>
    <defs>
        <filter id="filter0_d_13_3" x="6.15407" y="5.98" width="126.698" height="59.34" filterUnits="userSpaceOnUse"
                color-interpolation-filters="sRGB">
            <feFlood flood-opacity="0" result="BackgroundImageFix"/>
            <feColorMatrix in="SourceAlpha" type="matrix" values="0 0 0 0 0 0 0 0 0 0 0 0 0 0 0 0 0 0 127 0"
                           result="hardAlpha"/>
            <feOffset dy="4"/>
            <feGaussianBlur stdDeviation="2"/>
            <feComposite in2="hardAlpha" operator="out"/>
            <feColorMatrix type="matrix" values="0 0 0 0 0 0 0 0 0 0 0 0 0 0 0 0 0 0 0.25 0"/>
            <feBlend mode="normal" in2="BackgroundImageFix" result="effect1_dropShadow_13_3"/>
            <feBlend mode="normal" in="SourceGraphic" in2="effect1_dropShadow_13_3" result="shape"/>
        </filter>
    </defs>
</svg>
