<svg width="375" height="809" viewBox="0 0 375 809" fill="none" xmlns="http://www.w3.org/2000/svg">
<g filter="url(#filter0_d_16_113)">
<rect width="375" height="808" transform="translate(0 1)" fill="white"/>
<path d="M375 293C241.667 361.759 168.626 406.383 0 350V1H375V293Z" fill="#53B97C" stroke="#53B97C"/>
<path d="M63.2412 383.864C50.9215 389.82 45.633 402.461 45.633 402.461C45.633 402.461 60.3185 405.445 72.6383 399.489C84.958 393.533 90.2465 380.892 90.2465 380.892C90.2465 380.892 75.561 377.908 63.2412 383.864Z" fill="#53B97C"/>
<path d="M67.2943 387.958C60.0788 398.711 45.7466 402.852 45.7466 402.852C45.7466 402.852 43.1132 389.559 50.3288 378.806C57.5444 368.053 71.8765 363.912 71.8765 363.912C71.8765 363.912 74.5099 377.205 67.2943 387.958Z" fill="#53B97C"/>
<path d="M295.31 143.692H251.598V166.897H295.31V143.692Z" fill="#2F2E41"/>
<path d="M208.293 147.433H185.756V140.387C185.756 137.708 186.943 135.138 189.056 133.243C191.17 131.348 194.036 130.284 197.024 130.284C200.013 130.284 202.879 131.348 204.992 133.243C207.106 135.138 208.293 137.708 208.293 140.387V147.433ZM186.255 146.986H207.794V140.387C207.794 137.826 206.659 135.37 204.64 133.56C202.62 131.749 199.881 130.731 197.024 130.731C194.168 130.731 191.429 131.749 189.409 133.56C187.389 135.37 186.255 137.826 186.255 140.387V146.986Z" fill="#3F3D56"/>
<path d="M219.437 146.464V143.711L162.123 145.087L160.308 214.838L168.791 224.232L219.437 146.464Z" fill="#3F3D56"/>
<path d="M229.582 145.495L167.46 146.762L168.791 224.232L228.741 218.439L229.582 145.495Z" fill="#F1435B"/>
<path d="M282.399 396.491H275.347L271.993 372.106H282.4L282.399 396.491Z" fill="#FFB6B6"/>
<path d="M284.197 402.62L261.46 402.619V402.361C261.461 400.257 262.393 398.239 264.053 396.751C265.712 395.263 267.963 394.427 270.31 394.427H270.311L284.197 394.427L284.197 402.62Z" fill="#2F2E41"/>
<path d="M256.517 396.491H249.465L246.111 372.106H256.518L256.517 396.491Z" fill="#FFB6B6"/>
<path d="M258.315 402.62L235.579 402.619V402.361C235.579 400.257 236.511 398.239 238.171 396.751C239.83 395.263 242.081 394.427 244.428 394.427H244.429L258.315 394.427L258.315 402.62Z" fill="#2F2E41"/>
<path d="M235.809 243.802C235.809 243.802 225.506 263.694 234.814 303.734C244.121 343.774 244.198 387.732 244.198 387.732L258.429 387.94L266.424 293.303L270.61 386.603H284.631L296.988 294.777C296.988 294.777 305.119 253.774 286.986 246.433L235.809 243.802Z" fill="#2F2E41"/>
<path d="M285.122 173.601L253.962 171.026C244.19 177.411 238.706 188.881 239.831 200.715C241.358 216.76 240.842 238.841 228.592 248.434C228.592 248.434 261.979 272.06 291.637 249.645C291.637 249.645 281.496 225.286 288.459 215.558C295.422 205.831 297.934 178.5 285.122 173.601Z" fill="#E4E4E4"/>
<path d="M192.404 133.954C192.309 134.759 192.411 135.574 192.705 136.34C192.998 137.105 193.475 137.804 194.103 138.387C194.73 138.97 195.492 139.422 196.336 139.712C197.179 140.002 198.083 140.123 198.984 140.066L240.127 174.491L247.501 164.42L204.74 133.748C204.533 132.397 203.78 131.162 202.624 130.275C201.469 129.389 199.991 128.913 198.47 128.938C196.95 128.964 195.492 129.488 194.374 130.413C193.256 131.337 192.555 132.597 192.404 133.954V133.954Z" fill="#FFB6B6"/>
<path d="M232.444 169.173L242.204 160.184C242.482 159.928 242.818 159.729 243.189 159.6C243.56 159.471 243.958 159.416 244.355 159.437C244.753 159.459 245.14 159.557 245.492 159.724C245.843 159.892 246.15 160.126 246.391 160.41L254.853 170.353C256.304 171.635 257.13 173.38 257.148 175.206C257.167 177.032 256.377 178.79 254.952 180.095C253.527 181.4 251.583 182.145 249.546 182.167C247.509 182.188 245.546 181.485 244.087 180.211L232.808 172.92C232.485 172.711 232.216 172.443 232.02 172.132C231.823 171.822 231.703 171.477 231.669 171.121C231.634 170.766 231.686 170.408 231.819 170.072C231.953 169.735 232.166 169.429 232.444 169.173V169.173Z" fill="#E4E4E4"/>
<path d="M345.256 217.787C345.301 216.979 345.148 216.171 344.808 215.42C344.467 214.67 343.948 213.996 343.285 213.446C342.623 212.895 341.834 212.481 340.974 212.234C340.114 211.986 339.203 211.911 338.307 212.013L295.095 179.69L288.357 190.113L332.952 218.608C333.242 219.946 334.071 221.142 335.279 221.97C336.488 222.797 337.993 223.198 339.51 223.097C341.027 222.996 342.449 222.4 343.508 221.421C344.567 220.443 345.189 219.15 345.256 217.787V217.787Z" fill="#FFB6B6"/>
<path d="M303.096 184.617L293.908 194.078C293.646 194.348 293.323 194.563 292.96 194.71C292.598 194.857 292.204 194.933 291.806 194.931C291.408 194.93 291.015 194.851 290.653 194.701C290.292 194.551 289.971 194.333 289.713 194.062L280.648 184.555C279.119 183.348 278.187 181.646 278.055 179.824C277.923 178.002 278.603 176.207 279.945 174.833C281.287 173.459 283.182 172.618 285.214 172.495C287.247 172.372 289.25 172.977 290.786 174.176L302.5 180.894C302.835 181.086 303.12 181.341 303.336 181.641C303.551 181.941 303.692 182.28 303.749 182.633C303.805 182.986 303.776 183.347 303.663 183.689C303.551 184.031 303.357 184.348 303.096 184.617V184.617Z" fill="#E4E4E4"/>
<path d="M349.646 231.455H332.575V226.118C332.575 224.088 333.474 222.141 335.075 220.706C336.676 219.271 338.847 218.465 341.111 218.465C343.374 218.465 345.545 219.271 347.146 220.706C348.747 222.141 349.646 224.088 349.646 226.118L349.646 231.455ZM332.953 231.116H349.268V226.118C349.268 224.178 348.409 222.317 346.879 220.946C345.349 219.574 343.274 218.804 341.11 218.804C338.947 218.804 336.872 219.574 335.342 220.946C333.812 222.317 332.953 224.178 332.953 226.118V231.116Z" fill="#3F3D56"/>
<path d="M358.087 230.721V228.635L314.673 229.678L313.299 282.512L319.724 289.628L358.087 230.721Z" fill="#3F3D56"/>
<path d="M365.772 229.986L318.717 230.946L319.724 289.628L365.136 285.239L365.772 229.986Z" fill="#F1435B"/>
<path d="M271.728 166.381C281.893 166.381 290.133 158.993 290.133 149.88C290.133 140.766 281.893 133.378 271.728 133.378C261.564 133.378 253.323 140.766 253.323 149.88C253.323 158.993 261.564 166.381 271.728 166.381Z" fill="#FFB6B6"/>
<path d="M263.254 142.525C269.621 148.12 280.701 148.656 287.703 143.708C289.646 149.718 289.859 156.071 288.321 162.174C286.784 168.277 283.546 173.93 278.91 178.607C282.805 179.869 287.288 179.039 290.769 177.028C294.251 175.017 296.829 171.946 298.774 168.669C303.59 160.555 304.796 150.647 301.389 141.978C297.982 133.309 289.819 126.121 279.901 123.793C269.984 121.466 258.613 124.341 251.987 131.355C245.058 138.689 243.936 149.435 246.972 158.653C250.008 167.87 256.668 175.786 263.985 182.811C260.47 174.708 258.14 166.232 257.051 157.593C256.679 154.635 256.461 151.585 257.393 148.727C258.326 145.87 260.62 143.208 263.818 142.405" fill="#2F2E41"/>
<path d="M374.425 403.592H155.291C155.139 403.592 154.993 403.538 154.885 403.441C154.777 403.345 154.716 403.214 154.716 403.077C154.716 402.94 154.777 402.809 154.885 402.712C154.993 402.615 155.139 402.561 155.291 402.561H374.425C374.577 402.561 374.724 402.615 374.832 402.712C374.939 402.809 375 402.94 375 403.077C375 403.214 374.939 403.345 374.832 403.441C374.724 403.538 374.577 403.592 374.425 403.592Z" fill="#CACACA"/>
<path d="M93.75 403.592H0.575153C0.422613 403.592 0.276329 403.538 0.168467 403.441C0.0606047 403.345 0 403.214 0 403.077C0 402.94 0.0606047 402.809 0.168467 402.712C0.276329 402.615 0.422613 402.561 0.575153 402.561H93.75C93.9025 402.561 94.0488 402.615 94.1567 402.712C94.2646 402.809 94.3252 402.94 94.3252 403.077C94.3252 403.214 94.2646 403.345 94.1567 403.441C94.0488 403.538 93.9025 403.592 93.75 403.592Z" fill="#CACACA"/>
<path d="M340.444 358.827H323.372V353.49C323.372 351.46 324.272 349.513 325.873 348.078C327.473 346.643 329.644 345.837 331.908 345.837C334.172 345.837 336.343 346.643 337.944 348.078C339.544 349.513 340.444 351.46 340.444 353.49L340.444 358.827ZM323.75 358.488H340.066V353.49C340.066 351.55 339.206 349.689 337.676 348.318C336.146 346.946 334.072 346.176 331.908 346.176C329.744 346.176 327.67 346.946 326.14 348.318C324.61 349.689 323.75 351.55 323.75 353.49V358.488Z" fill="black"/>
<path d="M348.885 358.093V356.007L305.471 357.05L304.097 409.884L310.522 417L348.885 358.093Z" fill="#3F3D56"/>
<path d="M356.57 358.358L309.514 359.318L310.522 418L355.933 413.611L356.57 358.358Z" fill="#53B97C"/>
</g>
<defs>
<filter id="filter0_d_16_113" x="-4.5" y="0.5" width="384" height="816.5" filterUnits="userSpaceOnUse" color-interpolation-filters="sRGB">
<feFlood flood-opacity="0" result="BackgroundImageFix"/>
<feColorMatrix in="SourceAlpha" type="matrix" values="0 0 0 0 0 0 0 0 0 0 0 0 0 0 0 0 0 0 127 0" result="hardAlpha"/>
<feOffset dy="4"/>
<feGaussianBlur stdDeviation="2"/>
<feComposite in2="hardAlpha" operator="out"/>
<feColorMatrix type="matrix" values="0 0 0 0 0 0 0 0 0 0 0 0 0 0 0 0 0 0 0.25 0"/>
<feBlend mode="normal" in2="BackgroundImageFix" result="effect1_dropShadow_16_113"/>
<feBlend mode="normal" in="SourceGraphic" in2="effect1_dropShadow_16_113" result="shape"/>
</filter>
</defs>
</svg>
